<svg xmlns="http://www.w3.org/2000/svg" width="35" height="35" viewBox="0 0 35 35" fill="none">
  <path d="M23.8125 11.0781L25.2188 12.4844L14.75 23.0312C14.5938 23.1875 14.2812 23.3438 14.0469 23.3438C13.8125 23.3438 13.5 23.1875 13.3438 23.0312L8.96875 18.6562L10.375 17.25L14.0469 20.9219L23.8125 11.0781ZM17.25 1C26.2344 1 33.5 8.26562 33.5 17.25C33.5 26.2344 26.2344 33.5 17.25 33.5C8.26562 33.5 1 26.2344 1 17.25C1 8.26562 8.26562 1 17.25 1ZM17.25 32.1719C25.4531 32.1719 32.1719 25.4531 32.1719 17.25C32.1719 9.04688 25.4531 2.32812 17.25 2.32812C9.04688 2.32812 2.32812 9.04688 2.32812 17.25C2.32812 25.4531 9.04688 32.1719 17.25 32.1719Z" fill="#03A9F4" stroke="#0492D2" stroke-width="2"/>
</svg>
